# ProBuilder 5.2.3
# https://unity3d.com/unity/features/worldbuilding/probuilder
# 11/4/2024 2:12:05 AM

mtllib ./New_Game_Object.mtl
o New Game Object

g New Game Object
v 7.161324 0.3206463 0.02780724
v 7.161324 0.3206463 -0.4336987
v 7.161324 -4.999996 -0.4336987
v 7.161324 0.3206468 0.433691
v 7.161324 0.3250961 0.433691
v 7.161324 0.3250961 0.02819252
v 7.161324 -4.999996 0.433691
v 7.161324 0.3250961 0.02736855
v 7.16132 0.3250957 -0.4336967
v 7.16132 5.000005 0.433691
v 7.16132 5.000005 -0.4336967
v -2.015686 2.146545 -0.4336948
v -2.01569 5 -0.4336929
v -7.161324 4.999997 -0.433691
v -1.859619 2.059999 -0.4336948
v -0.8000031 2.059999 -0.4336948
v -0.8000031 5.000001 -0.4336929
v -2.015686 -5.000001 -0.4336929
v -7.16132 -5.000004 -0.433691
v -2.015686 -1.407346 -0.4336929
v -2.01569 0.3250957 -0.4336929
v 0.4656219 0.3250957 -0.4336948
v 0.8212204 0.3250957 -0.4336967
v 0.8212204 -5 -0.4336948
v -0.8000031 1.472401 -0.4336948
v 0.8212204 0.5733714 -0.4336948
v 0.8212204 5.000002 -0.4336948
v -0.8000031 0.3250957 -0.4336929
v 0.8212204 2.055551 -0.4336948
v 2.036903 2.055551 -0.4336948
v 2.0369 5.000003 -0.4336948
v -2.01569 2.059999 -0.4336929
v 2.043613 0.3250957 -0.4336929
v 2.036903 0.3206468 -0.4336948
v 7.16132 3.718158 -0.4336967
v 0.8212204 0.3206468 -0.4336948
v 2.04298 0.3250957 -0.4336948
v 2.036907 0.3250952 -0.4336948
v 5.293182 -4.999997 -0.4336948
v 2.041775 0.3250957 -0.4336948
v 7.16132 4.072321 -0.4336967
v 2.0369 1.422156 -0.4336948
v -2.01569 -5.000001 -0.1220703
v -2.015686 -5.000001 0.125433
v -2.015686 -5.000002 0.4336948
v -7.16132 -5.000005 0.4336967
v 0.8212204 -5 0.04973412
v 0.8212242 -5 0.4336929
v -2.01569 1.407343 0.4336967
v -7.161324 4.999996 0.4336987
v -2.015686 4.999999 0.4336948
v -2.01569 -1.446111 0.4336967
v 0.8212204 0.3250961 0.4336967
v 0.8212204 -0.5733712 0.4336948
v -0.4656219 0.3250961 0.4336948
v 0.8212204 0.3206468 0.4336948
v -2.015686 0.3250961 0.4336967
v -0.7999992 0.5585556 0.4336948
v -0.8000031 5 0.4336948
v 0.8212204 5.000001 0.4336948
v -0.7999992 0.3250961 0.4336948
v -0.8000031 2.06 0.4336948
v -2.015686 2.06 0.4336967
v 2.041779 0.3250961 0.4336948
v 2.036907 0.3206468 0.4336948
v 2.036907 0.3250961 0.4336948
v 2.036907 5.000002 0.4336948
v 2.036907 2.055551 0.4336948
v 0.8212204 2.055551 0.4336948
v -2.015686 5 -0.1861877
v -2.015686 4.999999 -0.4336929
v -2.01569 4.999999 0.1220722
v 0.8212204 5.000001 -0.04973412
v -0.8000031 5.000001 -0.1277122
v 2.036903 5.000002 -0.1233578
v -0.8000031 5 0.04844856
v -0.7999992 5 0.4336967
v 1.89481 2.055551 -0.4336948
v 1.896179 2.055551 -0.4336948
v -0.8730354 2.059999 -0.4336929
v 0.9633064 0.3206468 -0.4336948
v 0.8212166 1.85277 -0.4336929
v 2.026287 2.055551 -0.4336948
v 1.904057 2.055551 -0.4336929
v 1.905426 2.055551 -0.4336929
v 2.025696 2.055551 -0.4336948
v 2.036903 0.5234275 -0.4336929
v 1.906017 2.055551 -0.4336929
v 1.712067 0.3206472 0.4336948
v 1.782558 0.3206472 0.4336948
v 2.036903 1.591976 0.4336948
v 2.036903 1.722116 0.4336948
v 2.036903 0.6775489 0.4336948
v 1.146057 2.055551 0.4336948
v -1.794601 0.3250961 0.4336967
v -1.193901 0.3250961 0.4336948
v -1.712311 0.3250961 0.4336967
v -0.8000031 1.975401 0.4336967
v -0.7999992 1.497869 0.4336948
v -0.7999992 2.06 0.4336948
v -1.621784 2.059999 0.4336948
v 0.8212166 0.3250957 -0.4253693
v 0.8212204 0.7842221 0.4336948
v 2.036903 0.3250961 0.4146671
v -2.01569 1.955773 -0.4336929
v -2.015686 0.8872256 0.4336948
v -1.273796 0.3250961 0.4336967
v -1.831577 0.3250961 0.4336967
v -1.966461 0.3250961 0.4336948
v -1.942657 0.3250957 -0.4336929
v -0.8000031 0.4194808 -0.4336929
v -0.8000031 0.4293222 -0.4336929
v -0.8000031 1.90606 -0.4336929
v -1.72308 2.06 0.4336967
v -1.932037 2.06 0.4336967

vt 0.4679358 0.4679358
vt 0.4679358 1
vt 1 1
vt 0.4679357 0
vt 0.4674908 0
vt 0.4674909 0.4674909
vt 1 0
vt 0.4674908 0.4684417
vt 0.4674909 1
vt 0 0
vt 0 1
vt 0.2853453 0.6407344
vt 0 0.6407344
vt 0.2939999 0.6298378
vt 0.2940001 0.5558558
vt 0 0.5558558
vt 0.3592656 1
vt 0.6407346 0.9999986
vt 0.6407346 0.6407346
vt 1 0.6407346
vt 0.4674904 0.6407346
vt 0.4674905 0.442663
vt 1 0.442663
vt 0.3527599 0.5558558
vt 0.442663 0.442663
vt 0 0.4426629
vt 0.4674905 0.5558556
vt 0.294445 0.4426629
vt 0.2944451 0.3577845
vt 0 0.3577845
vt 0.294 0.6407344
vt 0.4674906 0.357316
vt 0.4679355 0.3577845
vt 0.1281847 0
vt 0.442663 0.9999979
vt 0 0.9999992
vt 0.4679354 0.442663
vt 0.4674906 0.3577845
vt 0.1304326 0.9999967
vt 0.0927684 0
vt 0.3577846 0.3577846
vt 0.5573372 0.9999992
vt 0.6422156 1
vt 0.6407346 0.3553896
vt 0.6407346 0
vt 0.4426628 0
vt 0.3592656 0.3592656
vt 0 0.3592657
vt 0.6446109 0.3592656
vt 0.4674905 0.5573372
vt 0.5573372 0.5573372
vt 0.4679354 0.5573372
vt 1 0.5573371
vt 0.4674903 0.3592657
vt 0.4441444 0.4441444
vt 0 0.4441444
vt 0 0.5573374
vt 0.4674904 0.4441444
vt 0.294 0.4441444
vt 0.2939999 0.3592657
vt 0.4674905 0.6425559
vt 0.4679354 0.6422157
vt 0.4674905 0.6422157
vt 0 0.642216
vt 0.2944451 0.6422158
vt 0.294445 0.5573373
vt 0.3592657 0.7146547
vt 0.3592656 0.9999987
vt 0.3592657 0
vt 0.4441443 0.6472402
vt 0.4441442 0.9999985
vt 0.6422158 0.6422158
vt 0.5573373 0
vt 0.4441447 0
vt 0.6422158 0
vt 1 0.3592655
vt -0.1420931 1.243695
vt -0.1407223 1.243695
vt -0.07303593 1.323693
vt -1.215689 1.323694
vt -1.730455 1.243694
vt -1.734904 1.243694
vt 1.215689 1.243693
vt 1.073597 1.243694
vt 1.788139E-06 1.243694
vt -0.2027807 1.243693
vt -0.0106188 1.243695
vt -1.215689 1.243693
vt -0.1328481 1.243694
vt -0.1314773 1.243693
vt -0.01121228 1.243694
vt 1.532123 1.243693
vt -0.1308839 1.243693
vt 0.3248393 0.3763046
vt 0.2543476 0.376305
vt 1.734904 0.3763047
vt 1.730455 0.3763047
vt 0.4635752 0.3763047
vt 0.3334351 0.3763052
vt 1.378002 0.3763052
vt -1.788139E-06 0.3763047
vt -0.8908508 0.376305
vt 0.9946057 0.4563061
vt 0.3939005 0.4563077
vt 0.9123135 0.4563062
vt 0.08459891 0.456306
vt 0.5621306 0.4563065
vt 1.192093E-07 0.4563074
vt -0.8217893 0.4563084
vt -1.730455 0.3763063
vt -1.730455 1.235369
vt -1.734904 0.3763063
vt -1.271329 0.3763046
vt 1.215689 0.3763046
vt 1.734904 1.243693
vt 1.730456 1.243693
vt 1.730456 0.3953325
vt -1.215689 0.3763063
vt -1.192093E-07 1.323694
vt -0.104226 1.323694
vt -1.172774 0.456306
vt -1.734904 1.323694
vt -1.734904 0.456306
vt 0.4737988 0.4563075
vt 1.031581 0.456306
vt 1.166466 0.4563059
vt 1.215689 0.4563059
vt 1.215689 1.323694
vt 1.142656 1.323695
vt 1.734904 0.4563065
vt 1.734904 1.323696
vt 1.640519 1.323696
vt 1.630678 1.323694
vt 0.1539398 1.323696
vt -0.9230844 0.4563063
vt -1.215689 0.456306
vt -1.132041 0.456306

vn 1 0.0001070672 -1.034212E-06
vn 0.9999999 0.0004286785 0
vn -1.707195E-06 -2.422996E-06 -1
vn 0 0 0
vn 0.0007522578 -0.001028422 -0.9999992
vn 5.302925E-07 -1 -1.122323E-06
vn 0 1 0
vn 9.746941E-07 5.996675E-07 1
vn -1 -3.814697E-07 -4.194173E-13

usemtl Shader_Graphs_Test_Lit
f 3/3/1 2/2/2 1/1/1
f 6/6/1 1/1/1 8/8/1
f 6/6/1 10/10/1 5/5/1
f 10/10/1 6/6/1 8/8/1
f 14/11/3 13/13/3 12/12/3
f 13/17/4 14/11/4 13/17/4
f 19/3/4 18/18/4 18/18/4
f 14/11/3 12/12/3 20/19/3
f 22/6/3 20/19/3 21/21/3
f 24/35/6 3/36/6 24/35/6
f 33/32/5 34/33/3 37/32/5
f 37/32/5 34/33/3 38/38/3
f 3/36/7 39/39/7 24/35/7
f 3/36/7 3/36/7 24/35/7
f 3/36/7 3/36/7 39/39/7
f 37/32/5 34/33/3 40/32/3
f 40/32/3 34/33/3 38/38/3
f 31/30/3 11/10/3 42/41/3
f 31/43/7 27/42/7 27/42/7
f 11/10/3 41/40/3 40/32/3
f 19/3/6 18/18/6 43/19/6
f 19/3/6 43/19/6 44/44/6
f 47/25/6 7/10/6 48/46/6
f 43/19/6 47/25/6 44/44/6
f 51/48/8 50/10/8 49/47/8
f 49/47/8 50/10/8 52/49/8
f 4/2/8 56/52/8 54/51/8
f 55/6/8 57/54/8 52/49/8
f 54/51/8 55/6/8 52/49/8
f 55/6/8 58/55/8 61/58/8
f 66/63/8 65/62/8 64/61/8
f 67/64/8 66/63/8 64/61/8
f 71/68/7 14/11/7 70/67/7
f 72/47/7 50/10/7 51/69/7
f 11/3/7 31/43/7 75/72/7
f 76/55/7 73/51/7 74/70/7
f 6/6/1 5/5/1 4/4/1
f 4/4/1 1/1/1 6/6/1
f 3/3/1 1/1/1 4/4/1
f 4/4/1 7/7/1 3/3/1
f 9/9/1 8/8/1 1/1/1
f 1/1/1 2/2/2 9/9/1
f 11/11/1 10/10/1 8/8/1
f 8/8/1 9/9/1 11/11/1
f 12/12/3 16/15/3 15/14/3
f 15/14/3 32/31/3 12/12/3
f 17/16/3 16/15/3 12/12/3
f 12/12/3 13/13/3 17/16/3
f 19/3/3 14/11/3 20/19/3
f 20/19/3 18/20/3 19/3/3
f 23/22/3 20/19/3 22/6/3
f 22/6/3 26/25/3 23/22/3
f 18/20/3 20/19/3 23/22/3
f 23/22/3 24/23/3 18/20/3
f 27/26/3 26/25/3 25/24/3
f 25/24/3 17/16/3 27/26/3
f 26/25/3 22/6/3 28/27/3
f 28/27/3 25/24/3 26/25/3
f 31/30/3 30/29/3 29/28/3
f 29/28/3 27/26/3 31/30/3
f 2/4/3 34/33/3 33/32/5
f 33/32/5 9/5/3 2/4/3
f 35/34/5 9/5/3 33/32/5
f 33/32/5 37/32/5 35/34/5
f 24/23/3 36/37/3 2/4/3
f 2/4/3 3/7/3 24/23/3
f 41/40/3 35/34/5 37/32/5
f 37/32/5 40/32/3 41/40/3
f 41/40/3 37/32/5 38/38/3
f 38/38/3 42/41/3 41/40/3
f 11/10/3 40/32/3 38/38/3
f 38/38/3 42/41/3 11/10/3
f 19/3/6 44/44/6 45/45/6
f 45/45/6 46/7/6 19/3/6
f 24/35/6 47/25/6 43/19/6
f 43/19/6 18/18/6 24/35/6
f 44/44/6 47/25/6 48/46/6
f 48/46/6 45/45/6 44/44/6
f 3/36/6 7/10/6 47/25/6
f 47/25/6 24/35/6 3/36/6
f 55/6/8 54/51/8 53/50/8
f 53/50/8 58/55/8 55/6/8
f 7/3/8 4/2/8 54/51/8
f 54/51/8 48/53/8 7/3/8
f 48/53/8 54/51/8 52/49/8
f 52/49/8 45/76/8 48/53/8
f 59/56/8 58/55/8 53/50/8
f 53/50/8 60/57/8 59/56/8
f 51/48/8 63/60/8 62/59/8
f 62/59/8 59/56/8 51/48/8
f 5/9/8 64/61/8 65/62/8
f 65/62/8 4/2/8 5/9/8
f 10/11/8 67/64/8 64/61/8
f 64/61/8 5/9/8 10/11/8
f 60/57/8 69/66/8 68/65/8
f 68/65/8 67/64/8 60/57/8
f 50/10/7 72/47/7 70/67/7
f 70/67/7 14/11/7 50/10/7
f 17/71/7 74/70/7 73/51/7
f 73/51/7 27/42/7 17/71/7
f 76/55/7 77/74/7 60/73/7
f 60/73/7 73/51/7 76/55/7
f 27/42/7 73/51/7 75/72/7
f 75/72/7 31/43/7 27/42/7
f 11/3/7 75/72/7 67/75/7
f 67/75/7 10/7/7 11/3/7
f 73/51/7 60/73/7 67/75/7
f 67/75/7 75/72/7 73/51/7
f 71/68/7 70/67/7 74/70/7
f 74/70/7 17/71/7 71/68/7
f 76/55/7 74/70/7 70/67/7
f 70/67/7 72/47/7 76/55/7
f 72/47/7 51/69/7 77/74/7
f 77/74/7 76/55/7 72/47/7
f 46/3/9 50/11/9 14/10/9
f 14/10/9 19/7/9 46/3/9
f 45/76/8 52/49/8 50/10/8
f 50/10/8 46/7/8 45/76/8

usemtl ProBuilderDefault
f 79/78/7 78/77/6 78/77/6
f 32/80/6 80/79/6 80/79/6
f 36/82/2 23/81/2 23/81/2
f 81/84/7 81/84/7 36/83/7
f 81/84/4 36/83/4 36/83/4
f 34/85/7 34/85/7 81/84/7
f 23/81/4 82/86/4 23/81/4
f 83/87/7 30/85/6 30/85/6
f 29/88/6 78/77/6 78/77/6
f 85/90/7 84/89/7 30/85/7
f 86/91/7 85/90/7 30/85/7
f 30/85/9 87/92/9 87/92/9
f 30/85/4 30/85/4 87/92/4
f 83/87/7 30/85/6 30/85/6
f 88/93/6 83/87/7 30/85/6
f 90/95/7 89/94/7 89/94/7
f 65/96/9 65/96/9 65/96/9
f 65/96/4 65/96/4 66/97/4
f 66/97/9 65/96/9 66/97/9
f 92/99/7 91/98/9 91/98/9
f 93/100/7 66/97/9 66/97/9
f 94/102/6 68/101/6 68/101/6
f 97/105/4 96/104/4 95/103/4
f 100/108/9 99/107/9 98/106/7
f 101/109/6 101/109/6 100/108/6
f 36/82/2 23/81/2 102/111/2
f 82/86/1 29/85/1 69/101/1
f 102/111/2 103/113/1 53/110/1
f 23/81/2 82/86/1 102/111/2
f 81/84/7 36/83/7 56/114/7
f 65/101/7 34/85/7 89/94/7
f 90/95/7 65/101/7 89/94/7
f 65/96/9 104/117/9 65/96/9
f 104/117/9 87/92/9 38/116/9
f 68/101/9 30/85/9 91/98/9
f 92/99/7 68/101/9 91/98/9
f 93/100/7 91/98/9 66/97/9
f 88/93/6 30/85/6 68/101/6
f 68/101/4 88/93/4 68/101/4
f 78/77/6 88/93/6 68/101/6
f 68/101/6 78/77/6 68/101/6
f 69/118/6 29/88/6 94/102/6
f 105/120/1 32/119/1 63/108/1
f 57/123/1 21/122/1 106/121/1
f 109/126/7 108/125/7 107/124/7
f 57/127/7 109/126/7 107/124/7
f 96/104/7 110/129/7 107/124/7
f 111/132/9 28/131/9 61/130/9
f 112/133/9 111/132/9 61/130/9
f 80/79/6 101/109/6 114/135/6
f 115/137/7 63/136/6 114/135/6
f 36/82/2 102/111/2 53/110/1
f 53/110/1 56/112/1 36/82/2
f 102/111/2 82/86/1 69/101/1
f 69/101/1 103/113/1 102/111/2
f 34/85/7 81/84/7 56/114/7
f 56/114/7 89/94/7 34/85/7
f 38/116/9 34/115/9 65/96/9
f 65/96/9 104/117/9 38/116/9
f 104/117/9 65/96/9 66/97/9
f 66/97/9 87/92/9 104/117/9
f 30/85/9 87/92/9 66/97/9
f 66/97/9 91/98/9 30/85/9
f 29/88/6 78/77/6 68/101/6
f 68/101/6 94/102/6 29/88/6
f 21/122/1 105/120/1 63/108/1
f 63/108/1 106/121/1 21/122/1
f 21/128/7 57/127/7 107/124/7
f 107/124/7 110/129/7 21/128/7
f 28/119/7 110/129/7 96/104/7
f 96/104/7 61/108/7 28/119/7
f 113/134/9 112/133/9 61/130/9
f 61/130/9 99/107/9 113/134/9
f 16/119/9 113/134/9 99/107/9
f 99/107/9 100/108/9 16/119/9
f 80/79/6 16/119/6 100/108/6
f 100/108/6 101/109/6 80/79/6
f 32/80/6 80/79/6 114/135/6
f 114/135/6 63/136/6 32/80/6

